<svg xmlns="http://www.w3.org/2000/svg" version="1.1" xmlns:xlink="http://www.w3.org/1999/xlink" xmlns:svgjs="http://svgjs.dev/svgjs" width="1000" height="1000" viewBox="0 0 1000 1000"><rect width="1000" height="1000" fill="#ffffff"></rect><g transform="matrix(0.7,0,0,0.7,150.68996422528744,118.10947368421051)"><svg viewBox="0 0 226 247" data-background-color="#ffffff" preserveAspectRatio="xMidYMid meet" height="1092" width="1000" xmlns="http://www.w3.org/2000/svg" xmlns:xlink="http://www.w3.org/1999/xlink"><g id="tight-bounds" transform="matrix(1,0,0,1,-0.22275987844994916,-0.09999999999999432)"><svg viewBox="0 0 226.4455181876873 247.2" height="247.2" width="226.4455181876873"><g><svg viewBox="0 0 395.5199999999999 431.77071810695804" height="247.2" width="226.4455181876873"><g transform="matrix(1,0,0,1,0,290.46695573072043)"><svg viewBox="0 0 395.5199999999999 141.30376237623761" height="141.30376237623761" width="395.5199999999999"><g id="textblocktransform"><svg viewBox="0 0 395.5199999999999 141.30376237623761" height="141.30376237623761" width="395.5199999999999" id="textblock"><g><svg viewBox="0 0 395.5199999999999 141.30376237623761" height="141.30376237623761" width="395.5199999999999"><g transform="matrix(1,0,0,1,0,0)"><svg width="395.5199999999999" viewBox="-0.49000000953674316 -50.779998779296875 177.52999877929688 63.43000030517578" height="141.30376237623761" data-palette-color="#0718c4"><path d="M73.05 11.04L73.05 11.04Q72.12 11.52 71.22 11.91 70.31 12.3 69.34 12.65L69.34 12.65Q68.6 12.11 67.75 12.16 66.89 12.21 66.06 11.96L66.06 11.96Q65.67 11.87 65.36 11.69 65.04 11.52 64.75 11.38L64.75 11.38Q63.18 10.69 61.57 9.94 59.96 9.18 58.69 7.91L58.69 7.91Q57.81 7.67 56.96 7.18 56.1 6.69 55.57 5.96L55.57 5.96 54.64 5.96Q54.2 5.32 53.56 4.91 52.93 4.49 52.27 4.08 51.61 3.66 51 3.22 50.39 2.78 49.95 2.1L49.95 2.1Q49.85 2.15 49.71 2.15L49.71 2.15Q49.46 2.15 49.29 2.05 49.12 1.95 48.88 1.95L48.88 1.95Q48.58 1.46 48.14 1.1 47.71 0.73 47.51 0.2L47.51 0.2Q47.22 0.34 46.92 0.34L46.92 0.34Q46.34 0.34 45.95-0.07 45.56-0.49 45.07-0.68L45.07-0.68Q44.53-0.49 43.99-0.44 43.46-0.39 42.97-0.15L42.97-0.15Q42.58 0 42.38 0.27 42.19 0.54 41.89 0.68L41.89 0.68Q41.7 0.78 41.46 0.76 41.21 0.73 41.02 0.88L41.02 0.88Q40.92 0.93 40.84 1.17 40.77 1.42 40.67 1.42L40.67 1.42Q40.53 1.42 40.45 1.34 40.38 1.27 40.14 1.27L40.14 1.27Q39.99 1.27 39.77 1.46 39.55 1.66 39.23 1.88 38.92 2.1 38.48 2.29 38.04 2.49 37.5 2.44L37.5 2.44Q35.79 3.76 33.79 4.2L33.79 4.2Q32.81 5.03 31.54 5.52 30.27 6.01 29.44 6.98L29.44 6.98 29.3 6.98Q28.66 6.98 28.22 7.18 27.78 7.37 27.32 7.62 26.86 7.86 26.34 8.06 25.83 8.25 25.05 8.25L25.05 8.25Q24.85 8.25 24.56 8.54 24.27 8.84 24.02 8.94L24.02 8.94Q23.24 8.94 22.31 9.08 21.39 9.23 20.85 9.86L20.85 9.86Q20.46 9.77 20.26 9.77L20.26 9.77Q19.48 9.77 18.77 10.01 18.07 10.25 17.29 10.25L17.29 10.25Q16.75 10.25 16.16 10.01L16.16 10.01Q15.48 10.16 14.75 10.55L14.75 10.55Q13.57 10.45 12.48 10.28 11.38 10.11 10.21 10.21L10.21 10.21Q9.18 9.77 7.98 9.42 6.79 9.08 5.62 8.67 4.44 8.25 3.39 7.67 2.34 7.08 1.61 6.15L1.61 6.15Q1.07 5.47 0.83 4.54 0.59 3.61 0.42 2.64 0.24 1.66 0.07 0.66-0.1-0.34-0.49-1.22L-0.49-1.22Q-0.39-2.1-0.15-2.95 0.1-3.81 0-4.69L0-4.69Q0.54-6.15 1.15-7.57 1.76-8.98 2.15-10.5L2.15-10.5Q3.32-11.67 4.08-13.16 4.83-14.65 5.66-16.11L5.66-16.11Q6.35-16.7 6.86-17.31 7.37-17.92 7.57-18.9L7.57-18.9Q7.86-18.95 7.98-19.17 8.11-19.38 8.25-19.6 8.4-19.82 8.57-19.97 8.74-20.12 9.13-20.12L9.13-20.12Q9.67-21.29 10.33-22.46 10.99-23.63 12.11-24.32L12.11-24.32Q12.4-25.1 12.87-25.76 13.33-26.42 13.89-27 14.45-27.59 14.97-28.2 15.48-28.81 15.82-29.59L15.82-29.59Q17.09-30.62 18.14-31.93 19.19-33.25 20.51-34.28L20.51-34.28Q20.65-34.33 20.68-34.55 20.7-34.77 20.7-34.86L20.7-34.86Q20.8-34.96 20.9-34.96L20.9-34.96Q21-34.96 21.02-34.94 21.04-34.91 21.14-34.91L21.14-34.91Q21.29-34.91 21.39-35.01L21.39-35.01Q21.39-35.45 21.58-35.72 21.78-35.99 22-36.25 22.22-36.52 22.39-36.79 22.56-37.06 22.61-37.45L22.61-37.45Q23.83-38.33 24.85-39.38 25.88-40.43 26.93-41.48 27.98-42.53 29.13-43.48 30.27-44.43 31.69-45.02L31.69-45.02 31.69-45.36Q31.69-45.51 31.74-45.7 31.79-45.9 31.88-46.04L31.88-46.04Q33.64-46.14 34.72-47.46L34.72-47.46Q35.6-47.61 36.5-47.97 37.4-48.34 38.04-49.02L38.04-49.02Q38.82-49.02 39.58-49.27 40.33-49.51 41.06-49.78 41.8-50.05 42.53-50.27 43.26-50.49 44.09-50.49L44.09-50.49Q44.29-50.49 44.46-50.44 44.63-50.39 44.87-50.39L44.87-50.39Q45.12-50.39 45.34-50.59 45.56-50.78 45.95-50.78L45.95-50.78Q46.83-50.78 47.71-50.37 48.58-49.95 49.95-50.05L49.95-50.05Q50-49.07 50.42-48.49 50.83-47.9 51.49-47.58 52.15-47.27 52.93-47.09 53.71-46.92 54.49-46.73L54.49-46.73Q54.54-45.61 55.44-45.24 56.35-44.87 57.32-44.82L57.32-44.82Q57.81-43.85 58.89-43.85L58.89-43.85Q59.08-43.85 59.3-43.87 59.52-43.9 59.77-43.95L59.77-43.95Q59.62-43.7 59.62-43.55L59.62-43.55Q59.62-43.21 59.99-43.04 60.35-42.87 60.64-42.87L60.64-42.87 60.79-42.92Q60.84-42.97 60.89-42.97L60.89-42.97 60.89-42.77Q60.89-42.48 60.91-42.41 60.94-42.33 61.13-42.19L61.13-42.19Q61.57-41.85 62.06-41.67 62.55-41.5 63.04-41.31L63.04-41.31Q63.48-40.82 63.79-40.38 64.11-39.94 64.79-39.89L64.79-39.89Q65.33-38.77 66.14-37.84 66.94-36.91 67.82-36.04L67.82-36.04 67.82-35.84Q67.82-34.96 68.26-34.59 68.7-34.23 69.19-33.59L69.19-33.59Q69.29-32.91 69.6-32.32 69.92-31.74 70.61-31.35L70.61-31.35Q70.56-31.1 70.56-30.91L70.56-30.91 70.56-30.52Q70.56-29.25 70.75-28.03 70.95-26.81 70.95-25.54L70.95-25.54Q70.95-24.37 70.68-23.34 70.41-22.31 70.02-21.31 69.63-20.31 69.19-19.34 68.75-18.36 68.36-17.29L68.36-17.29Q68.02-17.19 67.82-16.94L67.82-16.94 67.43-16.5Q67.24-16.31 66.99-16.14 66.75-15.97 66.41-15.92L66.41-15.92Q66.31-15.63 66.14-15.43 65.97-15.23 66.06-14.84L66.06-14.84Q64.65-13.87 63.43-12.74 62.21-11.62 60.94-10.5L60.94-10.5Q59.67-9.96 58.52-9.25 57.37-8.54 56.25-7.76L56.25-7.76 54-6.25Q52.88-5.52 51.71-4.88L51.71-4.88Q51.71-4.54 51.59-4.39 51.46-4.25 51.37-4L51.37-4Q52-3.42 52.56-2.81 53.13-2.2 53.74-1.71 54.35-1.22 55.05-0.85 55.76-0.49 56.74-0.34L56.74-0.34Q57.18 0.54 57.89 1.07 58.59 1.61 59.4 2.08 60.21 2.54 60.99 3.03 61.77 3.52 62.35 4.2L62.35 4.2 62.45 4.25Q62.65 4.25 62.74 4.13 62.84 4 63.04 4L63.04 4Q63.09 4 63.13 4.03 63.18 4.05 63.23 4.05L63.23 4.05Q64.16 5.08 65.21 5.74 66.26 6.4 67.58 6.64L67.58 6.64Q67.77 7.13 68.07 7.37 68.36 7.62 68.68 7.74 68.99 7.86 69.36 7.96 69.73 8.06 70.12 8.25L70.12 8.25Q70.51 8.2 70.68 7.98 70.85 7.76 71.14 7.57L71.14 7.57Q71.88 8.3 72.36 9.16 72.85 10.01 73.05 11.04ZM67.43-26.61L67.43-26.76Q67.43-27.44 67.29-28.08 67.14-28.71 67.24-29.39L67.24-29.39Q66.99-29.59 66.89-29.93L66.89-29.93 66.7-30.66Q66.6-31.05 66.48-31.37 66.36-31.69 66.06-31.84L66.06-31.84Q66.11-31.98 66.11-32.32L66.11-32.32Q66.11-32.76 65.89-33.11 65.67-33.45 65.41-33.81 65.14-34.18 64.94-34.55 64.75-34.91 64.79-35.35L64.79-35.35Q63.77-36.52 62.72-37.67 61.67-38.82 60.25-39.55L60.25-39.55Q60.16-39.79 60.11-39.99 60.06-40.19 59.91-40.43L59.91-40.43 58.84-40.43Q58.59-40.87 58.11-41.09 57.62-41.31 57.08-41.48 56.54-41.65 56.08-41.87 55.62-42.09 55.37-42.53L55.37-42.53 54.93-42.53Q53.56-42.53 52.32-42.99 51.07-43.46 49.76-43.75L49.76-43.75Q49.51-43.51 49.17-43.38 48.83-43.26 48.54-43.07L48.54-43.07Q47.95-43.6 47.17-43.8 46.39-43.99 45.65-43.99L45.65-43.99Q44.19-43.99 42.97-43.41L42.97-43.41Q42.72-43.51 42.72-43.65 42.72-43.8 42.48-43.8L42.48-43.8Q42.43-43.75 42.38-43.75L42.38-43.75Q41.6-43.55 40.92-43.16 40.23-42.77 40.14-41.85L40.14-41.85Q40.43-40.58 41.26-39.62 42.09-38.67 42.58-37.45L42.58-37.45Q43.21-37.26 43.58-36.82 43.95-36.38 44.19-35.82 44.43-35.25 44.58-34.62 44.73-33.98 44.87-33.45L44.87-33.45Q44.53-33.5 44.56-33.23 44.58-32.96 44.34-32.91L44.34-32.91Q42.82-33.5 41.48-34.3 40.14-35.11 38.77-35.89L38.77-35.89Q38.62-36.38 38.31-36.67 37.99-36.96 37.62-37.23 37.26-37.5 36.99-37.82 36.72-38.13 36.67-38.72L36.67-38.72 35.55-38.72Q35.45-39.4 35.01-39.79 34.57-40.19 33.98-40.58L33.98-40.58Q31.54-38.72 29.17-36.74 26.81-34.77 25.05-32.18L25.05-32.18 24.85-32.18Q24.51-32.18 24.22-32.03L24.22-32.03Q24.22-31.59 23.9-31.42 23.58-31.25 23.63-30.81L23.63-30.81Q22.8-30.52 22.29-29.91 21.78-29.3 21.34-28.64 20.9-27.98 20.39-27.37 19.87-26.76 19.09-26.46L19.09-26.46Q18.7-25.59 18.12-24.85 17.53-24.12 16.92-23.44 16.31-22.75 15.75-22 15.19-21.24 14.89-20.31L14.89-20.31Q14.84-20.31 14.79-20.34 14.75-20.36 14.7-20.36L14.7-20.36Q14.45-20.36 14.36-20.21 14.26-20.07 14.06-19.97L14.06-19.97Q13.53-18.8 12.82-17.8 12.11-16.8 11.35-15.8 10.6-14.79 9.91-13.77 9.23-12.74 8.79-11.57L8.79-11.57Q7.81-10.5 7.18-9.35 6.54-8.2 6.35-6.79L6.35-6.79Q5.96-6.45 5.79-5.83 5.62-5.22 5.47-4.69L5.47-4.69Q4.93-4.69 4.74-4.54L4.74-4.54Q4.88-3.66 4.98-2.66 5.08-1.66 5.27-0.68 5.47 0.29 5.83 1.2 6.2 2.1 6.84 2.78L6.84 2.78Q7.67 3.08 8.54 3.39 9.42 3.71 10.01 4.39L10.01 4.39 10.4 4.39Q10.94 4.39 11.43 4.54 11.91 4.69 12.3 5.08L12.3 5.08Q12.55 5.13 12.79 5.13L12.79 5.13 13.33 5.13Q14.55 5.13 15.75 4.96 16.94 4.79 18.16 4.79L18.16 4.79Q18.46 4.79 18.73 4.81 18.99 4.83 19.29 4.88L19.29 4.88Q19.58 4.79 20 4.54 20.41 4.3 20.7 4.2L20.7 4.2Q21.29 4.1 21.9 4.03 22.51 3.96 23.14 3.81L23.14 3.81Q24.27 3.52 25.34 3.03 26.42 2.54 27.49 2.1L27.49 2.1 28.42 2.1Q29.98 1.42 31.59 0.78 33.2 0.15 34.81-0.54 36.43-1.22 37.94-2.03 39.45-2.83 40.87-3.86L40.87-3.86Q40.23-4.1 39.84-4.44L39.84-4.44 39.11-5.18Q38.77-5.57 38.33-5.86 37.89-6.15 37.16-6.3L37.16-6.3Q36.57-7.37 35.42-8.15 34.28-8.94 33.13-9.69 31.98-10.45 31.13-11.4 30.27-12.35 30.27-13.77L30.27-13.77Q30.27-14.31 30.4-14.77 30.52-15.23 30.66-15.77L30.66-15.77Q31.2-15.87 31.54-16.26 31.88-16.65 32.42-16.8L32.42-16.8Q32.81-16.46 33.5-16.5 34.18-16.55 34.72-16.46L34.72-16.46Q35.4-15.58 36.23-14.87 37.06-14.16 37.94-13.5 38.82-12.84 39.65-12.16 40.48-11.47 41.21-10.64L41.21-10.64Q41.94-10.55 42.55-10.18 43.16-9.81 43.46-9.08L43.46-9.08 43.65-9.08Q43.99-9.08 44.09-8.86 44.19-8.64 44.68-8.74L44.68-8.74Q44.63-8.64 44.63-8.54L44.63-8.54Q44.63-8.2 44.87-8.08 45.12-7.96 45.21-7.71L45.21-7.71 45.41-7.71Q46.09-7.71 46.41-7.32 46.73-6.93 47.31-6.79L47.31-6.79Q48.54-7.47 49.66-8.28 50.78-9.08 52.2-9.47L52.2-9.47Q52.39-9.77 52.61-9.99 52.83-10.21 53.08-10.5L53.08-10.5 53.27-10.5Q53.66-10.45 53.86-10.69 54.05-10.94 54.3-11.18L54.3-11.18Q55.22-11.43 55.91-11.94 56.59-12.45 57.23-13.01 57.86-13.57 58.57-14.04 59.28-14.5 60.25-14.7L60.25-14.7Q60.45-14.99 60.74-15.36 61.04-15.72 61.38-16.06 61.72-16.41 62.11-16.6 62.5-16.8 62.89-16.8L62.89-16.8Q63.43-17.77 64.06-18.63 64.7-19.48 65.28-20.36 65.87-21.24 66.36-22.19 66.85-23.14 67.09-24.32L67.09-24.32Q67.04-24.51 67.02-24.66 66.99-24.8 66.99-24.95L66.99-24.95Q66.99-25.34 67.09-25.81 67.19-26.27 67.43-26.61L67.43-26.61ZM55.13-46.09L55.13-46.09Q55.13-46.04 55.08-46L55.08-46 54.98-46.19Q54.98-46.39 55.08-46.39L55.08-46.39Q55.13-46.29 55.13-46.09ZM104.59-7.91L104.59-7.91Q104.39-7.18 103.95-6.69 103.51-6.2 102.95-5.81 102.39-5.42 101.76-5.1 101.12-4.79 100.53-4.39L100.53-4.39 99.9-4.39Q97.85-4.39 96.75-5.4 95.65-6.4 95.07-7.89 94.48-9.38 94.21-11.08 93.94-12.79 93.55-14.21L93.55-14.21Q92.97-13.72 92.58-13.06 92.19-12.4 91.77-11.77 91.35-11.13 90.84-10.6 90.33-10.06 89.5-9.86L89.5-9.86Q89.35-9.52 89.18-9.18 89.01-8.84 88.96-8.45L88.96-8.45Q87.89-7.86 87.01-7.08 86.13-6.3 85.25-5.47 84.37-4.64 83.47-3.88 82.57-3.13 81.44-2.64L81.44-2.64Q81.39-2.69 81.25-2.69L81.25-2.69Q80.66-2.69 80.17-2.42 79.69-2.15 79.1-2.15L79.1-2.15Q78.71-2.15 78.39-2.29 78.07-2.44 77.76-2.64 77.44-2.83 77.1-2.93 76.76-3.03 76.36-2.98L76.36-2.98Q75.88-3.86 75.07-4.61 74.27-5.37 74.07-6.35L74.07-6.35Q73.97-6.79 73.95-7.25 73.92-7.71 73.83-8.2L73.83-8.2Q73.68-8.94 73.44-9.69 73.19-10.45 73.04-11.23L73.04-11.23Q73.29-12.55 73.51-14.14 73.73-15.72 74.05-17.31 74.36-18.9 74.92-20.34 75.49-21.78 76.36-22.8L76.36-22.8 76.32-23.14Q76.32-23.93 76.61-24.61 76.9-25.29 77.24-25.93 77.59-26.56 77.83-27.2 78.07-27.83 77.93-28.61L77.93-28.61Q78.51-28.91 79.15-29.1 79.78-29.3 80.47-29.3L80.47-29.3Q81.1-29.3 81.64-29.1L81.64-29.1Q81.54-28.71 81.98-28.61L81.98-28.61 81.98-28.47Q81.98-27.44 81.74-26.46 81.49-25.49 81.15-24.54 80.81-23.58 80.49-22.63 80.17-21.68 80.03-20.7L80.03-20.7Q79.83-20.65 79.76-20.51 79.69-20.36 79.64-20.21 79.59-20.07 79.49-19.97 79.39-19.87 79.2-19.87L79.2-19.87Q78.9-18.16 78.59-16.48 78.27-14.79 78.27-13.09L78.27-13.09Q78.27-12.06 78.46-10.99 78.66-9.91 79.2-8.94L79.2-8.94 79.39-8.98Q79.93-8.98 80.25-8.74 80.56-8.5 81.1-8.25L81.1-8.25Q81.49-8.35 81.83-8.52 82.18-8.69 82.13-9.13L82.13-9.13Q82.76-9.18 83.2-9.45 83.64-9.72 83.98-10.06L83.98-10.06 84.71-10.74Q85.1-11.08 85.64-11.23L85.64-11.23Q85.64-11.52 85.79-11.67L85.79-11.67 86.08-11.96Q86.23-12.11 86.3-12.28 86.37-12.45 86.33-12.79L86.33-12.79Q86.91-12.84 87.23-13.09 87.55-13.33 87.81-13.65 88.08-13.96 88.33-14.31 88.57-14.65 88.96-14.89L88.96-14.89Q89.3-15.63 89.91-16.85 90.52-18.07 91.14-19.38 91.75-20.7 92.21-21.9 92.67-23.1 92.67-23.73L92.67-23.73Q92.67-23.97 92.55-24.17 92.43-24.37 92.48-24.61L92.48-24.61 92.48-24.76Q92.87-25.24 93.19-25.83 93.5-26.42 93.87-26.95 94.24-27.49 94.68-27.93 95.11-28.37 95.8-28.61L95.8-28.61Q96.58-28.37 97.39-28.27 98.19-28.17 98.92-27.88L98.92-27.88Q98.97-26.66 99.17-25.05 99.36-23.44 99.85-22.31L99.85-22.31Q99.85-21.68 99.83-21.09 99.8-20.51 99.8-19.92L99.8-19.92Q99.8-18.95 99.88-17.92 99.95-16.89 100.19-16.02L100.19-16.02Q99.85-15.28 99.85-14.45L99.85-14.45Q99.85-13.33 100.19-12.33 100.53-11.33 100.68-10.21L100.68-10.21Q101.32-9.33 102.34-9.33L102.34-9.33Q102.59-9.33 102.76-9.38 102.93-9.42 103.12-9.52L103.12-9.52Q103.51-9.08 103.83-8.67 104.15-8.25 104.59-7.91ZM116.74-6.69L116.74-6.69Q116.5-6.3 116.16-5.98 115.82-5.66 115.52-5.32L115.52-5.32Q115.18-5.18 114.77-5.18 114.35-5.18 113.98-5.2 113.62-5.22 113.3-5.2 112.98-5.18 112.79-4.98L112.79-4.98Q112.4-5.08 112.2-5.35 112.01-5.62 111.52-5.66L111.52-5.66Q111.32-5.71 111.13-5.66L111.13-5.66Q110.4-6.49 109.79-7.42 109.17-8.35 108.64-9.18L108.64-9.18Q108.59-10.99 108.34-12.84L108.34-12.84Q108.3-13.28 108.2-13.72 108.1-14.16 108.05-14.55L108.05-14.55Q108.05-15.04 108.12-15.5 108.2-15.97 108.25-16.36L108.25-16.36Q108.44-17.77 108.69-19.14 108.93-20.51 109.13-21.92L109.13-21.92Q109.32-23.19 109.32-24.58 109.32-25.98 108.88-27.2L108.88-27.2 108.83-27.44Q108.93-27.83 109.05-28.1 109.17-28.37 109.22-28.71L109.22-28.71Q109.32-29.25 108.98-29.49L108.98-29.49Q109.13-29.88 109.47-30 109.81-30.13 109.86-30.57L109.86-30.57Q109.91-30.76 109.86-30.96L109.86-30.96Q110.25-31.1 110.66-31.23 111.08-31.35 111.47-31.25L111.47-31.25Q112.1-31.15 112.59-30.83 113.08-30.52 113.52-30.13L113.52-30.13Q114.3-27.78 114.16-25.17 114.01-22.56 113.67-19.92 113.33-17.29 113.23-14.77 113.13-12.26 114.01-10.11L114.01-10.11 114.11-10.06Q114.35-10.01 114.5-10.23 114.64-10.45 114.89-10.4L114.89-10.4Q115.08-10.3 115.13-10.3L115.13-10.3Q115.33-9.33 115.77-8.45 116.21-7.57 116.74-6.69ZM177.04-12.16L177.04-12.16Q176.85-11.33 176.29-10.86 175.72-10.4 174.99-10.16 174.26-9.91 173.45-9.81 172.65-9.72 172.01-9.67L172.01-9.67Q171.33-9.33 170.79-8.91 170.26-8.5 169.67-8.11L169.67-8.11Q165.37-7.57 161.17-6.79 156.97-6.01 152.68-5.47L152.68-5.47Q152.09-5.08 151.16-4.96 150.24-4.83 149.24-4.76 148.23-4.69 147.26-4.52 146.28-4.35 145.55-3.91L145.55-3.91Q142.38-3.76 139.4-2.83L139.4-2.83Q138.86-2.98 138.3-3.08 137.74-3.17 137.2-3.17L137.2-3.17Q136.81-3.17 136.32-3.1 135.83-3.03 135.54-2.64L135.54-2.64Q134.37-3.56 132.76-3.32L132.76-3.32Q131.44-3.91 130.44-4.79 129.44-5.66 128.9-7.03L128.9-7.03Q128.95-7.81 128.9-8.23 128.85-8.64 128.22-9.13L128.22-9.13Q128.22-9.47 128.43-9.67 128.65-9.86 128.7-10.21L128.7-10.21Q128.51-10.55 128.51-11.04L128.51-11.04Q128.51-11.87 128.8-12.72 129.09-13.57 128.9-14.4L128.9-14.4Q129.58-15.53 130.46-16.53 131.34-17.53 132.24-18.48 133.15-19.43 134.05-20.41 134.95-21.39 135.73-22.46L135.73-22.46Q136.66-22.75 137.42-23.36 138.18-23.97 138.88-24.66 139.59-25.34 140.32-25.98 141.06-26.61 142.03-27L142.03-27Q142.13-27.29 142.35-27.51 142.57-27.73 142.81-27.93 143.06-28.13 143.28-28.37 143.5-28.61 143.6-28.96L143.6-28.96 143.16-28.96Q140.96-28.96 138.76-28.69 136.56-28.42 134.39-28.05 132.22-27.69 130.07-27.29 127.92-26.9 125.72-26.66L125.72-26.66Q124.89-26.22 123.92-25.88 122.94-25.54 121.99-25.2 121.04-24.85 120.13-24.41 119.23-23.97 118.55-23.34L118.55-23.34Q118.4-23.29 118.11-23.29L118.11-23.29Q117.57-23.29 117.18-23.51 116.79-23.73 116.3-23.83L116.3-23.83Q116.2-24.61 115.98-25.32 115.76-26.03 115.76-26.81L115.76-26.81Q115.76-27.44 115.96-27.88L115.96-27.88Q116.64-27.88 116.91-28.32 117.18-28.76 117.72-29.1L117.72-29.1Q117.86-28.96 118.01-28.96L118.01-28.96Q118.25-28.96 118.45-29.15 118.64-29.35 118.94-29.54 119.23-29.74 119.62-29.88 120.01-30.03 120.65-29.98L120.65-29.98Q122.11-30.76 123.41-30.96 124.7-31.15 126.26-31.4L126.26-31.4Q126.65-31.49 126.8-31.64 126.95-31.79 127.14-32.08L127.14-32.08 128.17-32.03Q130.27-31.93 132.37-32.3 134.47-32.67 136.54-33.11 138.62-33.54 140.74-33.86 142.86-34.18 145.01-33.98L145.01-33.98Q145.55-34.23 146.11-34.28 146.67-34.33 147.26-34.33L147.26-34.33Q148.04-34.33 148.97-34.18 149.89-34.03 150.7-33.64 151.51-33.25 152.02-32.59 152.53-31.93 152.53-30.96L152.53-30.96Q152.53-30.42 152.29-29.98 152.04-29.54 151.7-29.15 151.36-28.76 150.97-28.39 150.58-28.03 150.24-27.69L150.24-27.69Q149.7-27.1 149.24-26.44 148.77-25.78 148.14-25.24L148.14-25.24Q147.8-25.29 147.62-25.1 147.45-24.9 147.11-24.9L147.11-24.9Q146.48-24.61 146.38-23.83L146.38-23.83Q145.06-23.29 143.84-22.56 142.62-21.83 141.84-20.56L141.84-20.56Q140.81-19.92 139.91-19.12 139.01-18.31 138.18-17.43 137.35-16.55 136.54-15.65 135.73-14.75 134.86-13.92L134.86-13.92Q134.76-13.18 134.51-12.55 134.27-11.91 133.98-11.23L133.98-11.23Q133.98-10.69 134.32-10.3 134.66-9.91 134.66-9.28L134.66-9.28Q135.88-9.03 137.08-8.91 138.27-8.79 139.54-8.79L139.54-8.79Q140.76-8.79 141.98-8.96 143.21-9.13 144.28-9.67L144.28-9.67Q145.01-9.47 145.79-9.47L145.79-9.47Q146.87-9.47 147.87-9.69 148.87-9.91 149.89-9.86L149.89-9.86Q151.12-10.3 152.41-10.47 153.7-10.64 154.97-10.77 156.24-10.89 157.54-11.08 158.83-11.28 160.05-11.82L160.05-11.82Q160.73-11.67 161.32-11.77 161.91-11.87 162.59-11.87L162.59-11.87Q163.08-11.87 163.76-11.57L163.76-11.57Q164.54-11.96 165.4-12.26 166.25-12.55 167.13-12.55L167.13-12.55Q167.47-12.55 167.81-12.5 168.16-12.45 168.45-12.3L168.45-12.3Q168.55-12.35 168.94-12.5 169.33-12.65 169.77-12.79 170.21-12.94 170.6-13.06 170.99-13.18 171.09-13.18L171.09-13.18Q171.48-13.18 171.45-12.96 171.43-12.74 171.67-12.74L171.67-12.74Q172.5-12.74 173.28-13.06 174.06-13.38 174.89-13.38L174.89-13.38Q175.24-13.38 175.53-13.33 175.82-13.28 176.21-13.18L176.21-13.18Q176.41-12.89 176.56-12.57 176.7-12.26 177.04-12.16Z" opacity="1" transform="matrix(1,0,0,1,0,0)" fill="#0718c4" class="undefined-text-0" data-fill-palette-color="primary" id="text-0"></path></svg></g></svg></g></svg></g></svg></g><g transform="matrix(1,0,0,1,85.88494914137243,0)"><svg viewBox="0 0 223.75010171725506 223.75010171725506" height="223.75010171725506" width="223.75010171725506"><g><svg></svg></g><g id="icon-0"><svg viewBox="0 0 223.75010171725506 223.75010171725506" height="223.75010171725506" width="223.75010171725506"><g><path d="M0 111.875c0-61.787 50.088-111.875 111.875-111.875 61.787 0 111.875 50.088 111.875 111.875 0 61.787-50.088 111.875-111.875 111.875-61.787 0-111.875-50.088-111.875-111.875zM111.875 211.007c54.749 0 99.132-44.383 99.132-99.132 0-54.749-44.383-99.132-99.132-99.132-54.749 0-99.132 44.383-99.132 99.132 0 54.749 44.383 99.132 99.132 99.132z" data-fill-palette-color="tertiary" fill="#0718c4" stroke="transparent"></path></g><g transform="matrix(1,0,0,1,58.65215800680551,50.4200018798743)"><svg viewBox="0 0 106.44578570364405 122.91009795750647" height="122.91009795750647" width="106.44578570364405"><g><svg xmlns="http://www.w3.org/2000/svg" xmlns:xlink="http://www.w3.org/1999/xlink" version="1.1" x="0" y="0" viewBox="9.54699993133545 3.2899999618530273 80.906005859375 93.41999816894531" enable-background="new 0 0 100 100" xml:space="preserve" height="122.91009795750647" width="106.44578570364405" class="icon-s-0" data-fill-palette-color="accent" id="s-0"><g fill="#24a8df" data-fill-palette-color="accent"><path d="M31.112 39.094v21.812L49.999 71.81l18.89-10.903V39.094l-18.89-10.905L31.112 39.094zM60.925 56.308l-10.926 6.307-10.924-6.307V43.692l10.924-6.308 10.926 6.308V56.308z" fill="#24a8df" data-fill-palette-color="accent"></path><path d="M49.999 3.29L9.547 26.646v46.709L49.999 96.71l40.454-23.355V26.646L49.999 3.29zM82.19 68.584L49.999 87.169 17.811 68.584v-37.17l32.188-18.585L82.19 31.414V68.584z" fill="#24a8df" data-fill-palette-color="accent"></path><path d="M20.368 32.89v34.218l29.631 17.108 29.634-17.108V32.89L49.999 15.782 20.368 32.89zM71.446 62.383l-21.447 12.38-21.444-12.38V37.618l21.444-12.382 21.447 12.382V62.383z" fill="#24a8df" data-fill-palette-color="accent"></path></g></svg></g></svg></g></svg></g></svg></g><g></g></svg></g><defs></defs></svg><rect width="226.4455181876873" height="247.2" fill="none" stroke="none" visibility="hidden"></rect></g></svg></g></svg>